# xmcd CD database file
# 
# Track frame offsets:
# 	150
# 	15920
# 	43133
# 	71644
# 	92116
# 	121923
# 	139101
# 	161631
# 	183521
# 	217181
# 	238177
# 	252871
# 	275999
# 	299052
# 	322802
# 
# Disc length: 4376 seconds
# 
# Submitted via: Nero 5.5.9.0
# 
# Revision: 0
# Processed by: cddbd v1.4PL0 Copyright (c) Steve Scherf et al.
#
DISCID=ea11160f
DTITLE=Various Artist - Larry Joe Taylor's 11th Annual Texas Music Festival
DYEAR=1900
DGENRE=
TTITLE0=Larry Joe Taylor - I Feel A Party Comin' On
TTITLE1=Larry Joe Taylor - Corona Con Lima
TTITLE2=Tommy Alverson - No Beans
TTITLE3=Brian Burns - Good Night Angelina
TTITLE4=Chris Schlotzhauer - It's Not Your Bloody Business
TTITLE5=Ed Burleson - Wide Open Spaces
TTITLE6=Rusty Wier - Cuervo's Gold
TTITLE7=Brent Mitchell Band - Child Of God
TTITLE8=Shaver - Thunderbird
TTITLE9=Owen Temple - The Wanna Wanna Bar
TTITLE10=Steven Fromholz - If I Can't Get To The River
TTITLE11=Joe Pat Hennen - Metamorphosis
TTITLE12=Pat Green etal - Takin' It As It  Comes
TTITLE13=Larry Joe Taylor - Terlingua Sky
TTITLE14=Bonus
EXTD=
EXTT0=
EXTT1=
EXTT2=
EXTT3=
EXTT4=
EXTT5=
EXTT6=
EXTT7=
EXTT8=
EXTT9=
EXTT10=
EXTT11=
EXTT12=
EXTT13=
EXTT14=
PLAYORDER=
